<svg width="24" height="24" viewBox="0 0 24 24" fill="none" xmlns="http://www.w3.org/2000/svg">
  <defs>
    <linearGradient id="grad1" x1="0%" y1="0%" x2="100%" y2="100%">
      <stop offset="0%" style="stop-color:#4F46E5;stop-opacity:1" />
      <stop offset="100%" style="stop-color:#7C3AED;stop-opacity:1" />
    </linearGradient>
  </defs>
  
  <!-- Background circle -->
  <circle cx="12" cy="12" r="10" fill="url(#grad1)" stroke="#E5E7EB" stroke-width="1"/>
  
  <!-- AI Brain icon -->
  <path d="M12 4C8.5 4 6 6.5 6 10c0 2.5 1.5 4.5 3.5 5.5L9 18l3-2 3 2-0.5-2.5C16.5 14.5 18 12.5 18 10c0-3.5-2.5-6-6-6z" fill="white" opacity="0.9"/>
  
  <!-- Accessibility symbol -->
  <circle cx="12" cy="12" r="2" fill="white" opacity="0.8"/>
  <path d="M12 8v8M8 12h8" stroke="white" stroke-width="1.5" stroke-linecap="round" opacity="0.8"/>
  
  <!-- Code brackets -->
  <path d="M6 8l2-2 1 1-1 1M18 8l-2-2-1 1 1 1" stroke="white" stroke-width="1" stroke-linecap="round" opacity="0.7"/>
</svg> 